<svg xmlns="http://www.w3.org/2000/svg" width="28" height="28" viewBox="0 0 28 28">
  <g fill="none" fill-rule="evenodd">
    <rect width="28" height="28"/>
    <path fill="#222222" d="M26.2405465,18.7216395 L27,21 L25,21 L24.3333333,19 L18,19 C16.3429636,19 15,17.6609724 15,16 L15,10 C15,8.34129491 16.3483148,7 18,7 L25,7 C26.6570364,7 28,8.33902761 28,10 L28,11.5 L28,16 C28,17.3907814 27.1785686,18.2979946 26.2405465,18.7216395 Z M2,7 L0,7 L0,19 L2,19 L2,14 L11,14 C11,14.0631827 11,19 11,19 L13,19 L13,7 L11,7 L11,12 L2,12 L2,7 Z M17,16 C17,16.5558369 17.4469676,17 18,17 L25,17 C25.5,17 26,16.5521873 26,16 L26,10 C26,9.44416311 25.5530324,9 25,9 L18,9 C17.4509356,9 17,9.44781271 17,10 L17,16 Z" opacity=".99"/>
  </g>
</svg>
